<!DOCTYPE svg PUBLIC "-//W3C//DTD SVG 20010904//EN" "http://www.w3.org/TR/2001/REC-SVG-20010904/DTD/svg10.dtd">
<svg version="1.0" xmlns="http://www.w3.org/2000/svg" width="960px" height="960px" viewBox="0 0 9600 9600" preserveAspectRatio="xMidYMid meet">
<g id="layer101" fill="#2179ee" stroke="none">
 <path d="M4003 9536 c-135 -23 -149 -31 -187 -107 -34 -69 -31 -165 8 -232 52 -89 148 -147 242 -147 93 0 202 77 244 173 25 56 26 154 2 202 -24 48 -72 104 -103 120 -35 19 -56 18 -206 -9z"/>
 <path d="M3285 9356 c-256 -86 -250 -83 -236 -100 7 -8 32 -24 56 -35 104 -49 269 -4 341 92 31 41 54 107 37 107 -4 0 -93 -29 -198 -64z"/>
 <path d="M4821 9386 c-48 -17 -108 -71 -132 -119 -27 -52 -29 -158 -4 -208 24 -47 73 -97 119 -121 32 -16 54 -19 117 -16 68 3 82 7 116 34 36 29 104 118 101 132 -1 4 2 26 6 49 17 94 -50 208 -146 248 -44 18 -129 19 -177 1z"/>
 <path d="M5668 9176 c-43 -19 -88 -67 -109 -114 -37 -84 -19 -162 50 -225 118 -107 291 -57 336 98 16 55 16 62 1 111 -35 111 -175 176 -278 130z"/>
 <path d="M2369 8942 c-118 -70 -331 -210 -405 -266 l-43 -33 18 -29 c54 -87 182 -143 300 -131 82 9 120 22 176 65 105 79 156 210 131 337 -8 40 -39 110 -54 119 -5 3 -60 -25 -123 -62z"/>
 <path d="M6520 8969 c-96 -39 -133 -188 -64 -260 80 -84 215 -76 278 17 20 30 24 48 23 94 -3 97 -71 161 -169 159 -24 0 -54 -5 -68 -10z"/>
 <path d="M2915 8936 c-69 -32 -147 -118 -170 -185 -38 -115 -9 -238 77 -324 161 -161 415 -117 523 93 27 53 28 179 2 242 -28 69 -96 140 -162 172 -76 36 -196 37 -270 2z"/>
 <path d="M3800 8763 c-165 -57 -250 -230 -190 -384 41 -103 114 -167 218 -189 144 -30 307 71 343 214 56 224 -158 432 -371 359z"/>
 <path d="M7348 8770 c-15 -9 -18 -26 -18 -95 0 -75 3 -86 26 -114 22 -26 33 -31 71 -31 34 0 55 7 80 26 37 28 62 70 58 96 -12 70 -162 152 -217 118z"/>
 <path d="M4675 8571 c-95 -26 -172 -98 -200 -187 -56 -177 106 -363 296 -341 63 8 103 29 158 86 48 50 81 122 81 178 0 89 -63 190 -147 236 -54 29 -138 41 -188 28z"/>
 <path d="M5480 8369 c-60 -27 -88 -54 -116 -114 -58 -123 -8 -268 113 -325 125 -59 276 0 330 129 34 81 9 203 -54 263 -69 66 -184 86 -273 47z"/>
 <path d="M1959 8333 c-20 -2 -69 -23 -110 -46 -58 -33 -82 -54 -110 -96 -91 -136 -95 -272 -13 -401 39 -61 68 -87 139 -126 68 -38 73 -39 170 -39 87 0 107 3 155 26 98 46 155 109 192 214 43 119 4 291 -84 371 -84 76 -213 113 -339 97z"/>
 <path d="M1413 8203 c-65 -65 -173 -181 -240 -258 l-122 -139 32 -15 c20 -9 67 -15 127 -15 82 -1 102 2 150 25 69 33 146 108 177 177 21 44 25 67 24 150 0 60 -5 113 -15 139 -8 22 -12 44 -9 47 4 3 4 6 0 6 -3 0 -59 -53 -124 -117z"/>
 <path d="M6329 8160 c-133 -70 -155 -241 -42 -340 50 -44 87 -55 169 -48 67 6 119 44 151 111 29 60 33 93 17 146 -35 118 -189 187 -295 131z"/>
 <path d="M2800 8134 c-108 -29 -187 -93 -233 -188 -25 -50 -29 -70 -29 -143 0 -75 4 -91 35 -158 28 -57 46 -82 84 -109 139 -103 340 -90 459 29 79 79 97 122 98 230 0 77 -4 98 -28 150 -31 67 -63 106 -120 142 -83 53 -180 71 -266 47z"/>
 <path d="M7191 7952 c-19 -9 -48 -34 -64 -54 -26 -32 -29 -45 -29 -101 0 -74 21 -113 80 -147 39 -24 111 -26 150 -6 66 34 111 120 96 183 -27 117 -136 175 -233 125z"/>
 <path d="M3660 7946 c-109 -24 -188 -86 -233 -183 -34 -75 -31 -186 7 -261 34 -67 86 -124 139 -154 36 -19 56 -23 142 -23 90 0 105 3 152 27 75 40 115 79 148 144 56 110 43 224 -36 329 -52 70 -107 106 -182 122 -72 15 -66 15 -137 -1z"/>
 <path d="M8004 7724 c-9 -63 -9 -128 1 -144 12 -20 72 -40 120 -40 40 0 47 3 56 27 14 38 15 114 1 140 -11 20 -66 43 -139 58 -31 6 -32 6 -39 -41z"/>
 <path d="M4451 7742 c-59 -23 -134 -92 -162 -150 -50 -103 -21 -246 67 -335 57 -57 111 -77 203 -77 69 0 86 4 137 31 76 40 95 58 130 127 41 81 41 173 -1 255 -33 66 -87 120 -149 148 -52 24 -163 24 -225 1z"/>
 <path d="M1040 7693 c-89 -26 -100 -34 -169 -131 -37 -54 -103 -153 -146 -221 l-77 -124 6 -61 c4 -36 16 -73 28 -91 28 -42 106 -100 175 -133 52 -24 69 -27 168 -27 101 1 115 3 169 30 258 127 308 457 99 657 -71 67 -196 117 -253 101z"/>
 <path d="M5318 7551 c-67 -26 -120 -71 -150 -128 -24 -43 -27 -59 -25 -129 2 -72 5 -85 36 -132 55 -86 137 -132 233 -132 103 0 205 67 248 162 25 56 24 160 -2 213 -66 132 -213 195 -340 146z"/>
 <path d="M1796 7510 c-80 -14 -169 -64 -220 -124 -72 -83 -90 -133 -93 -252 -2 -96 -1 -104 31 -170 40 -82 77 -119 171 -171 69 -38 71 -38 180 -37 134 0 176 17 259 102 66 67 89 110 112 205 15 60 16 79 5 131 -15 77 -45 139 -88 187 -87 96 -235 150 -357 129z"/>
 <path d="M6132 7344 c-29 -14 -61 -38 -72 -52 -11 -15 -24 -32 -29 -38 -5 -6 -14 -36 -21 -68 -30 -147 58 -266 216 -292 86 -13 185 35 229 113 32 55 41 155 19 210 -53 135 -210 193 -342 127z"/>
 <path d="M2610 7314 c-184 -49 -294 -225 -262 -416 21 -118 82 -202 192 -263 51 -28 62 -30 160 -30 94 0 111 3 161 28 67 33 138 105 175 179 21 43 27 69 29 140 3 105 -19 169 -85 248 -92 109 -229 152 -370 114z"/>
 <path d="M7017 7155 c-106 -37 -159 -172 -108 -272 45 -89 143 -137 229 -114 99 26 154 97 154 196 0 70 -14 105 -64 153 -54 51 -133 65 -211 37z"/>
 <path d="M3410 7110 c-67 -31 -108 -67 -144 -124 -115 -180 -44 -413 154 -508 65 -31 196 -31 264 0 107 48 174 130 201 244 13 57 13 71 -1 139 -22 101 -69 170 -155 224 -62 39 -65 40 -169 43 -89 2 -112 -1 -150 -18z"/>
 <path d="M7883 6953 c-36 -7 -90 -69 -108 -123 -16 -48 -16 -53 1 -100 22 -61 45 -83 107 -104 44 -15 51 -15 99 2 71 24 110 73 116 146 10 122 -89 204 -215 179z"/>
 <path d="M4315 6934 c-64 -20 -153 -80 -182 -122 -92 -138 -77 -297 41 -414 67 -67 119 -88 221 -88 71 0 90 4 143 30 122 62 174 140 178 270 3 72 0 93 -20 135 -72 154 -234 234 -381 189z"/>
 <path d="M746 6844 c-73 -23 -143 -72 -218 -152 l-67 -72 -16 55 c-26 88 -32 82 -104 -115 -30 -80 -65 -169 -78 -199 -32 -71 -40 -111 -22 -111 7 0 48 34 90 76 l77 76 111 -167 c107 -161 121 -185 102 -185 -4 0 -68 -34 -140 -75 -73 -41 -135 -75 -138 -75 -4 0 -14 -7 -24 -16 -16 -14 -19 -11 -50 55 -18 39 -37 71 -43 71 -5 0 -7 -3 -3 -6 3 -3 -1 -24 -9 -46 -8 -23 -16 -51 -18 -63 -2 -12 -16 -66 -31 -121 -14 -54 -28 -106 -30 -114 -2 -8 -15 -60 -30 -115 -28 -104 -29 -108 -41 -165 -7 -34 -7 -34 80 45 48 44 91 80 96 80 9 0 180 -251 180 -264 0 -4 -12 -14 -27 -22 -16 -7 -68 -38 -118 -67 -135 -82 -130 -81 -162 -16 -25 52 -49 82 -57 73 -3 -2 -7 -29 -10 -59 -3 -30 -10 -82 -16 -115 -15 -91 -12 -259 6 -333 20 -78 79 -183 133 -237 23 -21 41 -42 41 -47 0 -4 -19 -12 -42 -18 -61 -17 -85 -37 -104 -86 -15 -39 -15 -53 -4 -117 7 -39 14 -90 17 -112 2 -22 9 -57 14 -78 6 -21 12 -53 14 -70 4 -34 29 -146 47 -212 5 -22 12 -51 15 -65 4 -26 10 -48 64 -230 83 -286 227 -622 305 -714 29 -33 84 -171 84 -208 0 -8 67 -120 143 -242 204 -325 401 -571 687 -856 276 -275 465 -425 788 -622 60 -37 126 -76 145 -87 179 -101 259 -151 297 -188 51 -48 60 -52 60 -23 0 11 6 20 13 20 6 0 71 -32 142 -70 271 -146 290 -154 388 -158 83 -4 93 -2 152 27 43 21 81 51 113 87 l50 56 43 -83 c52 -98 164 -217 233 -248 96 -42 217 -42 311 0 84 38 191 128 240 203 21 32 24 29 55 -44 69 -167 105 -217 178 -254 28 -15 62 -17 230 -14 196 3 197 3 257 33 70 35 112 90 145 190 25 75 29 191 10 252 -57 175 -223 302 -396 303 -121 0 -215 -44 -327 -153 l-74 -73 -17 66 c-28 103 -72 177 -154 257 l-73 72 93 45 c123 58 187 117 233 209 19 40 37 86 39 102 2 17 7 50 10 75 10 61 -16 171 -55 231 -79 124 -218 199 -366 199 -113 0 -217 -54 -330 -173 -35 -36 -64 -60 -64 -54 -1 7 -3 21 -4 32 -11 100 -129 275 -218 321 -31 17 -29 29 8 38 42 11 157 69 206 104 56 40 105 104 135 175 19 44 22 68 20 152 -2 91 -5 106 -35 165 -41 82 -118 162 -196 203 -57 30 -66 32 -170 32 -107 0 -112 -1 -174 -35 -36 -19 -102 -70 -148 -113 -46 -44 -84 -73 -84 -66 -4 44 -7 59 -19 94 -35 108 -88 180 -177 239 l-63 43 57 18 c239 74 356 228 341 449 -12 169 -126 310 -296 367 -85 29 -217 31 -276 5 -59 -25 -140 -91 -193 -157 -51 -63 -56 -62 -68 11 -18 109 -112 247 -197 290 -16 7 -28 16 -28 19 0 3 44 27 98 53 188 89 272 217 278 424 2 87 1 95 -32 160 -39 77 -78 122 -145 165 -73 46 -152 69 -241 69 -112 0 -191 -40 -308 -156 -69 -68 -86 -80 -87 -63 -3 31 -33 118 -60 172 -31 62 -94 131 -150 164 -24 14 -43 27 -41 28 2 2 33 15 70 30 106 41 158 74 224 139 79 80 106 145 106 266 0 128 -44 225 -141 312 -89 81 -199 116 -318 103 -95 -10 -220 -86 -311 -191 l-41 -45 -11 43 c-32 125 -56 174 -115 237 -24 25 -66 60 -94 76 -54 32 -63 45 -32 45 32 0 162 57 219 96 82 57 148 161 160 254 18 142 1 216 -76 332 -79 120 -305 197 -446 152z m482 -1655 c45 -70 82 -129 82 -132 0 -3 -37 -24 -82 -46 -46 -22 -119 -60 -163 -84 l-80 -45 -55 82 c-30 44 -71 106 -92 138 l-36 56 56 45 c31 25 97 77 146 116 l89 70 26 -37 c15 -20 63 -94 109 -163z m-165 -967 c-10 -7 -39 -24 -64 -37 -25 -13 -72 -40 -104 -59 -32 -19 -62 -33 -67 -30 -20 13 -139 206 -135 219 3 7 26 28 51 47 26 18 74 54 107 81 l61 47 85 -127 c80 -119 84 -128 66 -141z m807 1 c58 -86 106 -160 108 -164 2 -4 -18 -20 -45 -35 -26 -15 -77 -44 -113 -64 -159 -91 -163 -93 -172 -76 -5 8 -46 71 -91 138 l-82 123 65 57 c98 86 211 178 219 178 4 0 54 -71 111 -157z m-1018 -823 c-8 -12 -166 -89 -174 -84 -5 3 -29 37 -55 76 l-46 70 49 45 c27 24 62 52 78 63 l29 19 61 -92 c34 -50 60 -94 58 -97z m826 -60 c45 -68 82 -124 82 -126 0 -1 -24 -14 -54 -27 -29 -14 -78 -41 -109 -60 -30 -20 -62 -37 -70 -39 -9 -2 -41 37 -86 103 -39 59 -71 111 -71 115 0 5 24 26 53 47 28 20 75 55 102 77 28 21 55 38 60 36 6 -1 47 -58 93 -126z m870 -134 l111 -165 -44 -25 c-24 -14 -46 -26 -49 -26 -4 0 -23 -10 -44 -23 -20 -13 -72 -42 -114 -66 l-77 -42 -80 120 c-115 173 -111 152 -44 204 32 25 94 77 138 116 44 39 83 71 86 71 4 0 57 -74 117 -164z m-1070 -733 c23 -35 42 -67 42 -72 0 -8 -136 -81 -151 -81 -13 0 -100 143 -92 151 5 5 36 31 69 57 68 55 54 61 132 -55z m867 -137 c47 -70 85 -129 83 -131 -2 -1 -43 -24 -93 -50 -49 -26 -102 -56 -116 -66 -32 -23 -30 -25 -118 111 l-62 95 33 25 c17 14 64 53 102 87 39 35 74 62 78 60 4 -1 46 -60 93 -131z m795 -20 c0 -4 14 -25 30 -46 17 -21 30 -40 30 -43 0 -3 30 -49 66 -102 36 -53 64 -98 62 -99 -1 -2 -43 -25 -93 -51 -49 -26 -121 -66 -158 -88 -37 -22 -69 -38 -71 -36 -2 2 -45 64 -94 138 l-91 134 69 56 c38 31 103 84 145 119 72 58 78 61 91 45 7 -10 14 -22 14 -27z m-1039 -778 c10 -13 18 -27 19 -32 0 -6 9 -19 19 -30 10 -12 29 -39 41 -60 25 -45 34 -34 -82 -98 l-68 -37 -50 76 c-27 42 -50 79 -50 83 0 7 139 118 148 120 2 0 12 -10 23 -22z m923 -220 l85 -128 -72 -41 c-40 -23 -94 -55 -120 -71 -27 -16 -53 -28 -58 -26 -4 2 -41 53 -82 114 l-74 111 60 49 c90 72 161 124 169 121 4 -1 45 -59 92 -129z m965 -309 c-40 -26 -311 -171 -313 -168 -1 2 -42 64 -91 138 l-89 134 39 31 c21 17 61 51 87 75 26 23 73 62 105 86 l57 43 109 -165 c87 -130 107 -167 96 -174z"/>
 <path d="M5155 6740 c-78 -26 -171 -124 -194 -205 -36 -129 29 -274 152 -345 45 -26 62 -30 130 -30 94 0 155 26 212 92 47 55 60 81 74 147 25 119 -29 248 -130 311 -48 29 -64 34 -134 36 -44 2 -93 -1 -110 -6z"/>
 <path d="M8719 6713 c-9 -2 -24 -21 -32 -41 -21 -48 -47 -125 -43 -129 8 -8 122 -24 153 -21 46 4 68 38 78 119 l7 56 -58 11 c-58 12 -76 13 -105 5z"/>
 <path d="M1587 6680 c-127 -33 -239 -138 -281 -268 -68 -205 47 -435 252 -503 93 -31 223 -24 310 15 146 67 250 258 224 411 -17 97 -20 105 -48 152 -43 73 -90 118 -165 158 -63 33 -79 37 -162 41 -51 2 -109 -1 -130 -6z"/>
 <path d="M5986 6535 c-76 -31 -131 -85 -156 -152 -26 -69 -25 -117 1 -186 42 -111 121 -168 240 -175 57 -4 74 0 132 27 75 35 108 72 137 155 25 69 25 78 -1 161 -16 53 -31 78 -68 115 -80 80 -178 99 -285 55z"/>
 <path d="M2460 6499 c-72 -9 -121 -31 -171 -76 -194 -176 -183 -459 25 -618 84 -64 252 -85 359 -45 78 29 169 115 208 196 27 58 30 75 31 157 0 145 -45 239 -153 321 -75 57 -184 81 -299 65z"/>
 <path d="M6805 6325 c-58 -35 -91 -76 -111 -139 -15 -49 -16 -61 -4 -112 33 -136 158 -214 297 -184 97 21 183 130 183 233 -1 80 -57 169 -132 208 -56 29 -179 25 -233 -6z"/>
 <path d="M3277 6301 c-106 -35 -187 -105 -234 -200 -23 -49 -27 -68 -26 -151 0 -86 3 -101 30 -155 103 -204 351 -267 545 -139 98 63 154 183 145 309 -6 85 -9 101 -37 156 -76 151 -266 232 -423 180z"/>
 <path d="M7696 6144 c-49 -18 -71 -37 -102 -89 -67 -115 -25 -242 98 -295 66 -28 131 -24 188 14 52 34 100 117 100 173 0 92 -68 180 -156 202 -55 14 -80 13 -128 -5z"/>
 <path d="M4164 6125 c-83 -18 -132 -45 -183 -100 -65 -71 -93 -142 -93 -241 0 -67 5 -91 26 -136 38 -81 86 -130 163 -169 60 -30 77 -34 148 -34 69 0 89 4 148 32 72 34 136 93 167 153 25 49 43 145 35 189 -4 20 -9 47 -11 60 -16 86 -114 195 -205 228 -77 29 -125 33 -195 18z"/>
 <path d="M212 6049 c2 -7 10 -15 17 -17 8 -3 12 1 9 9 -2 7 -10 15 -17 17 -8 3 -12 -1 -9 -9z"/>
 <path d="M8544 5935 c-32 -14 -93 -77 -96 -98 -6 -55 -3 -116 7 -137 54 -104 188 -124 270 -40 34 35 39 46 43 98 5 71 -15 121 -63 158 -40 31 -116 40 -161 19z"/>
 <path d="M4999 5930 c-63 -11 -117 -41 -165 -92 -56 -60 -71 -86 -85 -156 -13 -63 -3 -146 26 -202 27 -52 97 -120 153 -147 79 -39 191 -40 272 -1 74 34 130 85 160 144 32 64 35 183 6 259 -24 62 -105 149 -161 174 -51 23 -144 32 -206 21z"/>
 <path d="M5831 5734 c-90 -32 -141 -76 -181 -154 -24 -48 -27 -65 -25 -135 2 -72 6 -86 38 -140 41 -70 66 -95 127 -127 66 -34 165 -32 241 3 161 76 224 238 151 390 -17 35 -43 76 -57 92 -67 71 -203 104 -294 71z"/>
 <path d="M9424 5739 c-16 -5 -47 -25 -67 -45 -46 -46 -49 -88 -12 -133 45 -53 206 -91 205 -48 -1 22 -37 217 -41 221 -12 10 -58 13 -85 5z"/>
 <path d="M2246 5664 c-109 -34 -200 -115 -252 -222 -23 -49 -28 -72 -30 -160 l-3 -103 41 -80 c59 -115 129 -170 272 -214 175 -53 400 75 465 266 35 105 24 216 -32 325 -31 61 -107 133 -174 166 -56 27 -78 32 -152 35 -58 2 -102 -2 -135 -13z"/>
 <path d="M6641 5518 c-161 -79 -204 -283 -87 -415 55 -62 123 -93 206 -93 150 1 259 106 264 254 4 114 -47 201 -146 250 -69 35 -172 36 -237 4z"/>
 <path d="M3117 5486 c-112 -26 -218 -125 -261 -247 -22 -61 -23 -197 -2 -255 69 -195 288 -309 470 -245 85 30 161 84 201 144 146 215 64 501 -167 589 -67 25 -167 31 -241 14z"/>
 <path d="M7508 5335 c-85 -28 -158 -135 -158 -233 0 -49 31 -123 68 -159 51 -51 105 -73 182 -73 57 0 73 4 119 33 80 48 112 99 119 185 5 79 -15 136 -66 188 -60 60 -177 87 -264 59z"/>
 <path d="M3930 5283 c-112 -39 -208 -147 -230 -261 -19 -94 -8 -178 33 -258 75 -146 267 -228 418 -179 104 34 199 123 239 225 74 186 -37 405 -237 471 -67 23 -161 23 -223 2z"/>
 <path d="M8378 5136 c-93 -36 -141 -103 -140 -197 1 -158 153 -253 297 -185 72 33 107 82 113 161 9 126 -66 219 -184 230 -29 3 -64 -1 -86 -9z"/>
 <path d="M4803 5101 c-113 -33 -198 -114 -231 -221 -75 -245 144 -492 391 -441 120 25 196 83 246 191 22 46 26 69 26 140 0 72 -4 94 -28 145 -72 154 -245 233 -404 186z"/>
 <path d="M9240 4943 c-59 -12 -130 -97 -130 -157 0 -32 28 -105 49 -130 45 -52 138 -70 200 -38 81 41 119 138 89 226 -25 74 -117 117 -208 99z"/>
 <path d="M5670 4911 c-89 -19 -178 -91 -222 -179 -35 -72 -33 -188 5 -262 37 -72 98 -133 161 -162 71 -31 189 -31 262 1 65 29 142 106 170 173 42 101 17 244 -59 334 -43 51 -133 93 -213 98 -38 3 -85 1 -104 -3z"/>
 <path d="M6454 4700 c-68 -37 -97 -67 -132 -140 -65 -133 -7 -309 126 -386 41 -24 58 -28 132 -28 76 -1 90 2 138 29 68 37 138 114 154 168 39 133 -19 284 -137 356 -47 28 -59 31 -137 31 -76 0 -92 -3 -144 -30z"/>
 <path d="M2922 4646 c-151 -56 -244 -166 -273 -321 -10 -53 -8 -86 7 -168 6 -38 66 -136 109 -178 83 -84 216 -126 341 -108 94 13 145 39 219 110 162 155 171 400 21 568 -31 35 -113 85 -170 104 -72 24 -177 21 -254 -7z"/>
 <path d="M7379 4526 c-127 -27 -219 -133 -219 -253 0 -102 66 -210 153 -252 58 -28 171 -29 231 -2 59 27 132 108 146 162 6 24 13 50 15 57 3 7 -2 45 -11 84 -15 64 -22 77 -73 129 -54 56 -71 64 -161 82 -14 3 -50 -1 -81 -7z"/>
 <path d="M3793 4460 c-83 -18 -168 -74 -219 -146 -94 -133 -97 -308 -5 -444 46 -70 124 -123 224 -152 68 -20 84 -21 141 -11 139 24 245 101 303 221 23 49 27 72 30 157 2 94 0 104 -29 164 -61 128 -183 208 -326 216 -42 2 -96 0 -119 -5z"/>
 <path d="M8159 4315 c-75 -39 -129 -131 -129 -220 0 -125 117 -239 244 -239 139 0 257 132 243 270 -13 132 -108 214 -244 214 -52 -1 -79 -7 -114 -25z"/>
 <path d="M4649 4289 c-103 -21 -208 -110 -254 -216 -21 -47 -26 -74 -27 -145 -1 -117 20 -174 92 -248 94 -97 202 -134 326 -111 77 14 112 30 172 79 66 53 109 126 129 214 15 73 15 81 -2 143 -54 202 -242 324 -436 284z"/>
 <path d="M9085 4135 c-5 -2 -22 -6 -37 -9 -39 -9 -98 -64 -119 -111 -22 -48 -24 -111 -5 -156 18 -41 81 -104 119 -118 40 -15 108 -14 148 3 39 17 100 78 117 119 36 84 -12 208 -98 252 -26 13 -107 26 -125 20z"/>
 <path d="M5479 4085 c-71 -26 -116 -54 -158 -100 -57 -62 -83 -124 -89 -211 -9 -139 49 -248 168 -313 63 -35 68 -36 170 -36 121 0 158 14 240 91 72 67 102 138 102 240 0 107 -32 182 -106 252 -87 82 -225 115 -327 77z"/>
 <path d="M6335 3897 c-170 -57 -256 -185 -233 -349 14 -106 85 -205 178 -251 64 -31 203 -30 273 2 127 59 210 196 193 319 -14 101 -101 224 -189 266 -50 23 -169 30 -222 13z"/>
 <path d="M7199 3710 c-80 -14 -151 -62 -196 -133 -86 -137 -32 -338 114 -424 43 -25 57 -28 138 -28 78 1 97 4 141 27 125 66 190 213 149 339 -54 164 -185 246 -346 219z"/>
 <path d="M3629 3650 c-115 -20 -229 -113 -280 -227 -26 -59 -30 -79 -31 -158 0 -68 5 -103 21 -142 44 -112 114 -189 216 -238 55 -27 70 -29 165 -29 132 0 189 23 277 111 87 87 116 154 119 274 3 97 -5 136 -48 214 -26 49 -133 144 -191 169 -60 27 -176 39 -248 26z"/>
 <path d="M8025 3512 c-75 -24 -158 -111 -180 -186 -64 -220 165 -417 370 -320 56 27 112 82 141 139 26 50 26 156 -1 212 -31 68 -110 138 -176 157 -65 20 -90 19 -154 -2z"/>
 <path d="M4443 3450 c-174 -51 -284 -208 -270 -387 6 -84 10 -100 37 -153 35 -68 103 -134 171 -165 115 -51 263 -51 358 1 86 46 170 150 186 230 32 154 4 271 -88 371 -51 56 -105 87 -183 107 -78 20 -133 19 -211 -4z"/>
 <path d="M8885 3321 c-113 -24 -185 -120 -185 -245 1 -67 26 -121 82 -172 114 -105 297 -73 372 65 24 46 28 61 24 115 -6 95 -55 179 -128 216 -40 20 -121 31 -165 21z"/>
 <path d="M5305 3266 c-142 -35 -235 -138 -266 -294 -12 -55 -11 -71 6 -138 44 -175 173 -276 356 -277 76 0 93 3 157 33 82 38 136 90 178 172 25 47 28 64 28 148 1 82 -3 103 -25 151 -28 60 -109 147 -161 174 -84 43 -180 54 -273 31z"/>
 <path d="M6185 3084 c-134 -34 -235 -131 -271 -263 -15 -54 -16 -71 -5 -124 25 -123 91 -207 203 -260 47 -22 71 -27 138 -27 69 0 89 4 143 31 107 52 164 119 191 227 21 79 20 107 -5 187 -16 53 -32 80 -72 123 -72 75 -131 103 -226 108 -42 1 -85 1 -96 -2z"/>
 <path d="M6988 2897 c-52 -20 -113 -67 -152 -118 -102 -134 -90 -303 29 -422 67 -68 115 -89 206 -95 70 -4 82 -2 142 27 81 39 147 110 177 189 56 147 -22 332 -170 404 -55 28 -176 35 -232 15z"/>
 <path d="M7851 2699 c-120 -38 -211 -160 -211 -281 0 -144 122 -285 264 -304 92 -13 230 58 287 147 33 52 34 58 34 149 0 84 -3 101 -27 146 -38 73 -94 119 -173 143 -81 25 -93 25 -174 0z"/>
 <path d="M4310 2636 c-90 -16 -149 -47 -208 -110 -161 -170 -159 -397 5 -558 64 -63 135 -100 229 -119 53 -11 71 -10 133 5 90 22 131 45 199 110 103 99 141 224 111 368 -46 215 -246 345 -469 304z"/>
 <path d="M8705 2513 c-44 -6 -135 -71 -170 -121 -28 -41 -30 -49 -30 -140 0 -87 3 -101 27 -137 14 -22 37 -50 50 -63 24 -21 95 -62 109 -62 7 0 172 245 232 346 42 69 44 80 21 112 -35 50 -144 80 -239 65z"/>
 <path d="M5154 2450 c-172 -25 -307 -192 -306 -378 1 -128 51 -231 152 -311 71 -56 136 -76 246 -74 80 0 97 4 155 32 73 37 97 57 143 121 51 70 69 125 71 220 2 65 -3 98 -18 140 -68 183 -239 280 -443 250z"/>
 <path d="M5960 2253 c-51 -17 -136 -70 -163 -100 -10 -11 -33 -50 -51 -88 -32 -62 -34 -74 -34 -158 0 -98 21 -165 75 -235 32 -43 112 -94 182 -117 191 -63 427 75 459 268 24 148 -12 263 -111 354 -95 86 -240 117 -357 76z"/>
 <path d="M6815 2066 c-65 -20 -98 -42 -142 -89 -73 -79 -87 -118 -88 -232 0 -91 3 -105 29 -158 51 -100 142 -166 258 -187 97 -18 217 20 296 94 17 16 32 34 32 40 0 5 6 17 13 25 27 32 49 113 49 179 -1 192 -155 343 -346 341 -34 0 -79 -6 -101 -13z"/>
 <path d="M7625 1851 c-133 -64 -206 -201 -178 -336 17 -78 40 -121 93 -175 85 -84 190 -114 300 -86 251 65 333 372 145 545 -69 63 -114 81 -215 81 -73 0 -93 -4 -145 -29z"/>
 <path d="M4955 1622 c-80 -24 -118 -45 -172 -95 -47 -43 -108 -143 -117 -191 -16 -86 -17 -118 -6 -176 31 -174 165 -302 346 -333 163 -28 344 70 424 230 33 64 34 73 34 173 0 94 -3 111 -26 158 -41 81 -87 137 -147 176 -102 68 -230 90 -336 58z"/>
 <path d="M5735 1394 c-88 -44 -124 -79 -168 -165 -34 -65 -36 -73 -35 -170 0 -116 14 -165 68 -236 93 -122 269 -180 417 -137 139 40 220 122 264 266 23 77 24 128 3 197 -35 119 -105 200 -216 251 -61 27 -77 30 -165 30 -92 -1 -103 -3 -168 -36z"/>
 <path d="M6664 1254 c-53 -8 -155 -75 -196 -129 -92 -122 -106 -307 -32 -425 32 -52 92 -104 154 -136 50 -26 65 -29 155 -29 93 0 105 2 167 33 77 38 139 101 175 180 20 42 25 69 25 135 0 92 -15 141 -69 224 -44 66 -58 78 -150 123 -43 21 -163 33 -229 24z"/>
 <path d="M7490 1053 c-91 -32 -162 -95 -206 -183 -30 -59 -45 -162 -25 -174 13 -8 494 311 489 326 -7 19 -102 48 -158 47 -30 0 -75 -8 -100 -16z"/>
 <path d="M5600 603 c-163 -57 -272 -210 -272 -383 0 -76 7 -106 31 -134 29 -34 53 -35 177 -11 65 12 164 30 219 39 312 52 395 83 395 145 0 73 -79 206 -163 275 -77 63 -144 86 -250 86 -57 -1 -109 -7 -137 -17z"/>
 <path d="M6467 419 c-51 -12 -118 -61 -154 -112 -50 -70 -50 -70 -12 -62 19 4 47 13 64 20 16 8 89 34 160 60 72 26 143 52 158 58 36 13 25 22 -41 36 -61 13 -121 13 -175 0z"/>
 </g>

</svg>