<!DOCTYPE svg PUBLIC "-//W3C//DTD SVG 20010904//EN" "http://www.w3.org/TR/2001/REC-SVG-20010904/DTD/svg10.dtd">
<svg version="1.0" xmlns="http://www.w3.org/2000/svg" width="430px" height="473px" viewBox="0 0 4300 4730" preserveAspectRatio="xMidYMid meet">
<g id="layer101" fill="#000000" stroke="none">
 <path d="M3041 4719 c-215 -42 -354 -237 -320 -452 27 -173 159 -298 345 -328 86 -14 181 -1 262 36 70 32 155 115 189 184 26 51 28 66 28 171 0 106 -2 120 -28 172 -81 166 -279 256 -476 217z m175 -218 c132 -60 134 -276 2 -340 -139 -67 -285 43 -264 197 17 127 145 196 262 143z"/>
 <path d="M1249 4712 l-127 -3 -53 -119 -53 -120 -38 0 -38 0 0 120 0 120 -120 0 -120 0 0 -380 0 -380 243 0 c261 1 287 5 352 54 19 15 47 51 62 79 23 43 28 65 28 127 0 65 -4 82 -30 129 -17 31 -46 64 -67 79 l-38 25 69 133 c38 74 66 135 63 136 -4 2 -64 2 -133 0z m-113 -466 c21 -29 17 -63 -8 -80 -16 -11 -46 -16 -105 -16 l-83 0 0 61 0 61 91 -4 c76 -2 93 -6 105 -22z"/>
 <path d="M4155 4712 l-130 -3 -51 -117 -50 -117 -42 -3 -42 -3 0 120 0 121 -115 0 -115 0 0 -380 0 -380 243 0 c234 0 244 1 292 24 62 29 97 66 126 131 46 105 18 230 -68 304 l-45 38 67 132 c37 73 66 133 64 134 -2 1 -62 1 -134 -1z m-127 -458 c14 -10 22 -26 22 -44 0 -46 -31 -60 -127 -60 l-83 0 0 60 0 60 83 0 c59 0 89 -5 105 -16z"/>
 <path d="M210 4430 l0 -280 -100 0 -100 0 0 -100 0 -100 320 0 320 0 0 100 0 100 -100 0 -100 0 0 280 0 280 -120 0 -120 0 0 -280z"/>
 <path d="M1450 4330 l0 -380 295 0 296 0 -3 98 -3 97 -172 3 -173 2 0 35 0 35 168 2 167 3 3 103 3 102 -171 0 -170 0 0 40 0 40 173 2 172 3 3 98 3 97 -296 0 -295 0 0 -380z"/>
 <path d="M2090 4616 l0 -93 140 -182 c77 -100 140 -184 140 -186 0 -3 -63 -5 -140 -5 l-140 0 0 -100 0 -100 300 0 300 0 0 88 0 88 -145 190 -146 189 148 5 148 5 3 98 3 97 -306 0 -305 0 0 -94z"/>
 <path d="M1530 3435 c-316 -113 -583 -208 -593 -212 -16 -8 -17 -57 -17 -933 l0 -925 27 -22 c29 -23 151 -67 221 -78 l42 -7 0 -224 c0 -250 10 -325 61 -454 108 -272 349 -481 634 -552 124 -30 324 -30 440 1 89 24 220 83 293 132 69 48 178 155 228 226 59 82 119 212 145 314 17 70 22 125 26 321 l5 236 67 15 c101 23 178 55 201 84 20 25 20 37 20 940 l0 914 -32 13 c-27 11 -1146 401 -1183 412 -5 1 -269 -89 -585 -201z m970 -381 c216 -80 402 -150 412 -155 17 -9 18 -38 18 -583 0 -463 -3 -576 -13 -585 -21 -17 -130 -39 -267 -53 -172 -18 -951 -18 -1115 0 -134 15 -242 37 -262 53 -10 9 -13 123 -13 588 l0 577 418 151 c229 83 420 151 423 152 3 1 183 -65 399 -145z m160 -2004 c0 -188 -11 -265 -51 -350 -60 -130 -158 -225 -286 -278 -235 -99 -511 -9 -655 213 -65 99 -78 161 -81 380 l-2 190 538 0 537 0 0 -155z"/>
 </g>

</svg>