<!DOCTYPE svg PUBLIC "-//W3C//DTD SVG 20010904//EN" "http://www.w3.org/TR/2001/REC-SVG-20010904/DTD/svg10.dtd">
<svg version="1.0" xmlns="http://www.w3.org/2000/svg" width="968px" height="968px" viewBox="0 0 9680 9680" preserveAspectRatio="xMidYMid meet">
<g id="layer101" fill="#f8a035" stroke="none">
 <path d="M4678 8465 c-2 -1 -47 -6 -100 -9 -53 -4 -106 -9 -118 -11 -12 -2 -51 -7 -87 -10 -166 -15 -502 -94 -718 -169 -181 -63 -333 -128 -488 -209 -119 -62 -320 -183 -403 -243 -23 -16 -52 -36 -64 -44 -12 -8 -39 -28 -59 -43 -20 -16 -51 -41 -70 -55 -159 -123 -437 -396 -541 -532 -19 -25 -40 -49 -47 -53 -7 -4 -13 -13 -13 -20 0 -7 -14 -25 -30 -41 -16 -16 -32 -37 -36 -48 -3 -10 -18 -32 -34 -49 -15 -17 -36 -48 -46 -68 -37 -78 -48 -98 -78 -146 -18 -27 -68 -122 -112 -210 -43 -88 -82 -161 -86 -163 -5 -2 -8 -12 -8 -23 0 -10 -4 -19 -10 -19 -5 0 -10 -6 -10 -14 0 -7 -7 -27 -15 -42 -8 -16 -15 -37 -15 -46 0 -10 -4 -18 -10 -18 -5 0 -10 -7 -10 -16 0 -8 -11 -30 -24 -47 -23 -31 -36 -69 -39 -114 -1 -13 -5 -23 -9 -23 -12 0 -101 -317 -93 -331 3 -4 0 -11 -6 -14 -5 -4 -8 -13 -5 -21 3 -7 1 -16 -3 -19 -5 -3 -8 -18 -7 -35 1 -16 -1 -31 -6 -32 -4 -2 -9 -19 -12 -38 -3 -19 -10 -71 -16 -115 -29 -205 -34 -270 -34 -510 -1 -199 5 -326 19 -433 2 -20 7 -57 10 -82 12 -107 52 -302 91 -445 14 -49 26 -97 28 -106 8 -32 57 -175 66 -191 6 -10 10 -23 10 -29 0 -5 11 -34 23 -62 13 -29 32 -74 43 -102 28 -75 199 -411 227 -444 7 -9 19 -27 25 -41 7 -14 23 -41 37 -60 13 -19 39 -57 57 -84 35 -52 147 -204 168 -229 7 -8 24 -28 39 -45 14 -16 46 -54 71 -83 64 -78 246 -259 260 -259 6 0 8 -4 5 -10 -6 -9 8 -14 27 -11 5 0 7 -3 5 -8 -2 -9 26 -37 103 -99 25 -20 52 -43 61 -52 9 -8 26 -22 39 -30 12 -8 34 -25 48 -37 15 -13 35 -23 45 -23 10 0 16 -4 12 -10 -7 -11 49 -42 60 -32 5 4 5 2 1 -5 -4 -8 5 -18 24 -28 16 -8 30 -13 30 -10 0 7 90 -44 106 -60 13 -12 453 -232 534 -267 30 -12 60 -28 65 -35 10 -12 73 -38 130 -53 17 -4 39 -11 49 -16 15 -6 17 -4 11 7 -5 8 1 6 12 -4 25 -22 129 -51 145 -41 6 4 8 3 5 -3 -4 -6 7 -13 26 -17 17 -3 43 -9 57 -12 14 -3 40 -7 58 -7 17 -1 32 -5 32 -9 0 -3 19 -10 43 -14 23 -4 44 -8 47 -9 65 -13 175 -26 190 -22 11 3 18 2 15 -3 -15 -24 441 -43 690 -27 408 25 857 134 1240 302 102 45 296 145 378 196 43 27 81 49 84 49 8 0 98 64 101 73 2 4 8 7 13 7 12 0 195 134 222 161 10 11 21 19 25 19 18 0 332 291 332 307 0 5 9 14 19 20 27 17 231 255 231 271 0 6 4 12 9 12 14 0 63 78 56 90 -3 6 -3 10 2 9 26 -4 49 24 44 54 -1 5 3 6 8 3 5 -3 16 11 26 32 24 54 57 115 69 128 6 6 54 96 106 200 52 104 98 191 103 192 4 2 7 12 7 23 0 10 5 19 10 19 6 0 10 9 10 19 0 11 5 23 11 26 6 4 8 13 5 21 -3 8 -1 14 4 14 6 0 10 9 10 20 0 11 5 20 10 20 6 0 10 9 10 20 0 11 4 20 9 20 13 0 34 57 25 71 -4 7 -3 10 3 6 9 -6 25 27 28 58 0 6 7 21 14 33 7 13 10 26 7 29 -3 4 -1 11 4 18 5 6 11 20 13 31 1 10 5 24 8 29 12 20 31 114 25 124 -3 5 -2 11 4 13 6 2 12 14 15 28 3 14 11 52 20 85 8 33 17 76 19 95 8 59 18 115 21 120 2 3 7 37 10 75 4 39 8 72 10 76 7 11 19 257 18 384 0 123 -10 340 -18 395 -2 14 -8 63 -14 110 -6 47 -13 96 -16 110 -47 241 -107 474 -155 595 -4 11 -22 58 -39 105 -40 107 -35 95 -129 290 -81 168 -175 334 -184 325 -2 -3 -5 1 -5 8 0 12 -50 97 -63 107 -3 3 -17 23 -30 45 -13 22 -27 42 -30 45 -3 3 -30 39 -60 80 -30 41 -61 82 -70 90 -9 8 -31 35 -50 60 -81 104 -258 282 -273 273 -5 -3 -7 -1 -4 4 7 12 -137 149 -204 193 -12 8 -29 23 -38 33 -8 9 -24 17 -34 17 -10 0 -16 4 -12 9 7 12 -29 33 -40 23 -5 -4 -5 -1 -1 6 5 8 -4 17 -26 27 -18 8 -29 14 -24 15 17 0 -29 29 -47 30 -10 0 -16 4 -12 10 6 10 -44 40 -67 40 -8 0 -38 16 -68 36 -60 40 -492 263 -519 268 -24 4 -93 38 -116 56 -24 20 -240 92 -347 116 -10 2 -27 6 -38 8 -11 3 -25 8 -30 11 -6 3 -10 1 -10 -5 0 -7 -6 -6 -15 3 -16 17 -89 32 -105 22 -5 -3 -10 -2 -10 3 0 10 -130 35 -191 38 -20 0 -40 3 -45 6 -5 3 -43 9 -84 13 -41 3 -88 9 -105 11 -33 6 -452 14 -457 9z"/>
 </g>
<g id="layer102" fill="#fffffe" stroke="none">
 <path d="M4634 7106 c-2 -6 -37 -152 -78 -324 -41 -172 -76 -315 -79 -318 -2 -2 -42 4 -88 15 -159 38 -699 161 -703 161 -3 0 -9 -76 -22 -285 -2 -44 -7 -108 -10 -142 -3 -35 -2 -63 3 -63 36 -1 313 -74 338 -90 35 -22 65 -73 65 -112 0 -12 -18 -99 -39 -193 -22 -93 -62 -269 -90 -390 -28 -121 -86 -373 -129 -560 -44 -187 -96 -414 -117 -505 -42 -186 -50 -204 -99 -248 -71 -62 -126 -63 -356 -8 -94 23 -137 30 -142 22 -3 -6 -15 -56 -27 -111 -12 -55 -32 -144 -45 -198 -16 -69 -20 -100 -12 -103 10 -3 276 -65 623 -145 78 -18 147 -35 153 -39 7 -4 -8 -85 -44 -241 -96 -414 -94 -404 -82 -410 12 -7 357 -89 374 -89 6 0 18 33 26 73 74 331 131 557 142 557 16 0 296 -68 301 -74 2 -2 -5 -39 -16 -82 -43 -175 -124 -544 -120 -549 9 -8 315 -77 353 -78 l39 -2 37 160 c21 88 52 226 70 307 18 81 36 152 40 158 5 9 38 9 125 0 143 -15 381 -8 482 15 154 34 300 115 380 212 101 121 168 305 178 485 8 158 -74 355 -189 456 -20 17 -36 33 -36 35 0 2 35 7 79 10 425 33 656 306 678 802 12 250 -62 441 -234 606 -85 82 -162 134 -302 204 -122 62 -140 69 -331 134 -128 44 -135 47 -132 71 2 14 35 160 73 324 39 164 66 302 62 306 -15 14 -375 92 -383 84 -7 -8 -89 -351 -126 -531 -10 -45 -21 -88 -25 -94 -6 -10 -41 -5 -156 20 -81 18 -151 36 -156 40 -6 6 36 197 132 604 6 25 5 39 -2 44 -27 17 -379 89 -383 79z m303 -1247 c141 -32 316 -82 415 -119 93 -34 235 -112 292 -160 69 -57 132 -152 147 -220 25 -116 -13 -251 -94 -333 -93 -95 -205 -131 -402 -130 -141 0 -225 10 -410 50 -130 27 -295 69 -302 77 -6 6 8 70 112 516 84 362 81 350 94 350 5 0 72 -14 148 -31z m-404 -1248 c23 -6 76 -17 117 -26 333 -74 564 -197 644 -345 56 -103 44 -247 -30 -357 -71 -104 -163 -144 -346 -151 -165 -6 -313 17 -579 88 l-37 10 14 67 c8 36 45 200 83 362 38 163 72 311 76 329 4 17 9 32 11 32 3 0 24 -4 47 -9z"/>
 </g>

</svg>