<!DOCTYPE svg PUBLIC "-//W3C//DTD SVG 20010904//EN" "http://www.w3.org/TR/2001/REC-SVG-20010904/DTD/svg10.dtd">
<svg version="1.0" xmlns="http://www.w3.org/2000/svg" width="1200px" height="886px" viewBox="0 0 12000 8860" preserveAspectRatio="xMidYMid meet">
<g id="layer101" fill="#333746" stroke="none">
 <path d="M3495 8845 c-178 -39 -281 -133 -305 -275 -19 -114 11 -209 90 -287 40 -39 134 -93 164 -93 28 0 24 -14 -9 -37 -70 -48 -96 -153 -55 -232 10 -21 44 -61 75 -88 l56 -50 -32 -13 c-47 -20 -123 -102 -156 -167 -26 -54 -28 -66 -28 -183 0 -114 2 -130 27 -182 31 -67 96 -140 153 -174 57 -33 185 -64 264 -64 36 0 97 7 136 15 48 10 131 15 262 15 l193 0 0 39 0 39 -67 7 c-38 3 -93 8 -124 11 l-56 6 41 79 c38 74 41 87 44 178 6 142 -25 226 -114 314 -82 81 -190 117 -347 117 -129 0 -161 14 -208 89 -53 83 -31 168 49 191 20 5 116 10 214 10 317 0 443 45 516 184 24 45 27 62 26 151 0 87 -3 108 -26 157 -58 126 -189 209 -383 244 -98 17 -318 17 -400 -1z m378 -100 c210 -37 309 -131 311 -295 2 -177 -114 -229 -484 -217 -188 6 -247 20 -309 74 -48 41 -81 121 -81 197 0 71 41 151 97 190 87 60 287 82 466 51z m-64 -1025 c169 -28 250 -139 239 -329 -8 -136 -49 -205 -153 -258 -66 -34 -195 -43 -277 -19 -126 36 -198 133 -206 275 -8 140 30 229 122 285 45 28 130 53 186 55 14 1 54 -4 89 -9z"/>
 <path d="M1430 8308 c-182 -20 -314 -102 -405 -253 -67 -112 -80 -175 -80 -385 0 -206 13 -271 78 -395 43 -82 147 -185 220 -219 259 -121 542 -35 657 199 43 87 60 164 67 303 l6 122 -458 0 -458 0 7 68 c21 210 106 351 254 420 55 26 63 27 227 27 164 -1 173 -2 266 -33 53 -18 99 -32 103 -32 4 0 6 24 4 52 l-3 53 -59 23 c-116 46 -282 66 -426 50z m406 -815 c-16 -176 -89 -299 -211 -355 -71 -32 -215 -32 -297 0 -74 30 -147 96 -187 171 -31 59 -71 192 -71 238 l0 23 386 0 387 0 -7 -77z"/>
 <path d="M2500 8309 c-209 -21 -353 -147 -422 -369 -21 -68 -23 -94 -23 -265 0 -215 11 -275 73 -405 96 -205 328 -308 574 -256 104 23 169 58 237 132 l61 65 0 -366 0 -366 58 3 57 3 3 903 2 902 -44 0 -43 0 -7 -52 c-4 -29 -9 -73 -12 -96 l-7 -44 -45 53 c-111 126 -262 178 -462 158z m258 -129 c166 -58 236 -214 235 -520 -1 -218 -33 -350 -107 -437 -40 -48 -137 -91 -233 -105 -145 -21 -287 27 -363 122 -90 113 -134 333 -111 544 34 301 178 437 446 420 44 -3 104 -14 133 -24z"/>
 <path d="M4855 8313 c-291 -23 -469 -186 -521 -478 -26 -151 -12 -345 35 -474 67 -180 205 -306 378 -345 88 -20 148 -20 234 -2 87 19 141 47 206 109 109 102 153 218 160 420 l6 137 -452 0 -451 0 0 51 c0 129 59 280 140 359 93 90 180 115 379 108 118 -5 148 -9 227 -37 51 -17 95 -31 98 -31 3 0 6 24 6 54 l0 53 -42 16 c-84 31 -154 47 -223 53 -38 2 -86 6 -105 8 -19 1 -53 1 -75 -1z m375 -752 c0 -39 -24 -171 -40 -216 -51 -148 -169 -235 -319 -235 -204 1 -359 138 -400 355 -7 33 -14 70 -17 83 l-4 22 390 0 c233 0 390 -4 390 -9z"/>
 <path d="M8806 8308 c-129 -16 -233 -85 -280 -187 -18 -39 -21 -64 -21 -161 0 -106 2 -119 27 -166 50 -96 155 -166 306 -205 65 -16 253 -32 486 -39 5 0 6 -48 4 -107 -11 -223 -90 -319 -275 -331 -104 -7 -248 25 -354 79 l-37 18 -22 -51 c-12 -28 -18 -54 -13 -58 19 -17 183 -69 255 -80 103 -17 277 -8 342 16 64 25 141 94 173 157 46 93 52 164 53 650 l0 447 -45 0 c-52 0 -50 5 -65 -110 l-11 -86 -73 72 c-124 121 -262 165 -450 142z m279 -137 c165 -73 231 -183 242 -403 6 -111 5 -118 -13 -118 -10 0 -93 5 -184 11 -334 21 -464 81 -500 230 -27 113 18 231 105 276 54 29 79 33 190 30 88 -3 120 -8 160 -26z"/>
 <path d="M10785 8310 c-94 -10 -149 -26 -220 -63 -123 -65 -219 -195 -262 -357 -25 -92 -25 -358 1 -450 30 -111 89 -221 155 -288 182 -185 503 -202 681 -36 111 104 160 229 167 432 l6 132 -453 0 -453 0 6 83 c15 189 100 334 233 396 74 35 139 44 284 38 116 -4 148 -9 226 -36 51 -17 95 -31 98 -31 3 0 6 24 6 54 l0 53 -42 16 c-84 31 -154 47 -223 53 -38 2 -86 6 -105 8 -19 2 -66 0 -105 -4z m395 -798 c0 -128 -62 -271 -146 -334 -108 -83 -264 -90 -402 -19 -112 57 -189 191 -215 374 l-6 37 385 0 384 0 0 -58z"/>
 <path d="M11731 8310 c-120 -18 -194 -72 -236 -176 -18 -46 -20 -79 -23 -526 l-3 -478 -95 0 -94 0 0 -34 c0 -33 2 -35 58 -51 144 -41 130 -32 143 -94 6 -31 19 -94 28 -141 17 -84 17 -85 49 -88 l32 -3 0 155 0 156 185 0 185 0 0 50 0 50 -185 0 -186 0 3 453 c4 501 5 513 70 576 50 48 160 61 301 35 27 -5 27 -5 27 44 0 56 -2 58 -82 67 -107 12 -124 12 -177 5z"/>
 <path d="M10 7440 l0 -850 60 0 60 0 0 795 0 795 405 0 405 0 0 55 0 55 -465 0 -465 0 0 -850z"/>
 <path d="M5510 7660 l0 -630 49 0 49 0 7 110 7 109 52 -72 c105 -146 244 -199 440 -167 32 5 60 11 61 12 2 2 -2 27 -7 56 -12 58 -7 56 -111 41 -165 -25 -299 53 -377 216 -47 100 -50 137 -50 560 l0 395 -60 0 -60 0 0 -630z"/>
 <path d="M6966 8238 c-82 -289 -366 -1322 -422 -1532 -13 -50 -24 -96 -24 -103 0 -11 15 -13 62 -11 l62 3 58 215 c31 118 64 238 72 265 8 28 28 102 45 165 17 63 56 207 87 320 76 280 124 473 125 501 0 13 20 -52 44 -146 39 -156 108 -407 220 -800 23 -82 66 -234 95 -337 l54 -188 68 0 c37 0 68 2 68 5 0 2 57 202 126 442 201 698 242 842 268 943 13 52 27 88 29 80 3 -8 13 -46 22 -85 8 -38 48 -189 87 -335 103 -388 245 -916 265 -987 l18 -63 56 0 c30 0 58 2 61 5 3 3 -21 101 -54 218 -32 116 -65 235 -72 262 -8 28 -64 232 -126 455 -62 223 -127 461 -146 530 -19 69 -41 149 -50 178 l-15 52 -52 0 -52 0 -64 -228 c-35 -125 -123 -436 -196 -692 -73 -256 -140 -496 -150 -535 -10 -38 -21 -73 -25 -77 -3 -5 -12 20 -19 55 -15 77 -132 505 -332 1212 -34 121 -64 230 -67 243 -4 19 -10 22 -58 22 l-53 0 -15 -52z"/>
 <path d="M9660 7385 l0 -905 60 0 60 0 0 905 0 905 -60 0 -60 0 0 -905z"/>
 <path d="M10010 7385 l0 -906 58 3 57 3 3 903 2 902 -60 0 -60 0 0 -905z"/>
 <path d="M4120 4949 c-277 -62 -501 -274 -586 -554 -26 -86 -28 -101 -32 -352 l-4 -263 596 0 596 0 0 595 0 595 -242 -1 c-201 -1 -258 -4 -328 -20z"/>
 <path d="M5392 4378 l3 -593 593 -3 592 -2 0 595 0 595 -595 0 -595 0 2 -592z"/>
 <path d="M7285 4958 c-3 -7 -4 -274 -3 -593 l3 -580 593 -3 594 -2 -5 272 c-4 249 -6 279 -26 343 -51 156 -153 309 -269 401 -68 53 -213 127 -297 151 -82 22 -582 32 -590 11z"/>
 <path d="M3500 2485 l0 -595 595 0 595 0 0 595 0 595 -595 0 -595 0 0 -595z"/>
 <path d="M5390 1540 l0 -1540 1185 0 c1028 0 1196 2 1260 15 189 39 353 142 470 295 59 77 92 139 128 244 l32 91 3 1218 2 1217 -1540 0 -1540 0 0 -1540z"/>
 <path d="M3500 953 c0 -279 15 -367 84 -507 83 -167 196 -280 361 -361 148 -74 174 -78 478 -83 l267 -3 0 590 0 591 -595 0 -595 0 0 -227z"/>
 </g>

</svg>