<!DOCTYPE svg PUBLIC "-//W3C//DTD SVG 20010904//EN" "http://www.w3.org/TR/2001/REC-SVG-20010904/DTD/svg10.dtd">
<svg version="1.0" xmlns="http://www.w3.org/2000/svg" width="1196px" height="1200px" viewBox="0 0 11960 12000" preserveAspectRatio="xMidYMid meet">
<g id="layer101" fill="#ffa810" stroke="none">
<path d="M954 8566 c-110 -25 -179 -68 -290 -181 l-102 -104 -10 42 c-6 23 -13 54 -17 70 -3 18 -12 27 -24 27 -20 0 -25 -9 -98 -210 -39 -108 -99 -265 -113 -295 -37 -82 -40 -94 -19 -105 16 -9 27 -2 77 51 31 34 74 80 96 101 l38 40 139 -209 c77 -114 139 -211 139 -215 0 -4 -19 -17 -42 -29 -24 -12 -113 -61 -199 -110 -86 -49 -159 -89 -163 -89 -14 0 -86 173 -80 195 4 15 0 24 -12 29 -24 9 -29 0 -15 -30 9 -22 7 -44 -18 -137 -17 -62 -44 -166 -61 -232 -27 -105 -68 -261 -113 -432 -8 -31 -10 -53 -4 -53 5 0 41 30 81 68 39 37 88 82 108 101 l36 33 111 -166 c105 -157 121 -186 103 -186 -4 0 -59 -31 -122 -68 -63 -37 -136 -80 -162 -95 l-47 -27 -27 47 c-15 27 -39 68 -55 92 -33 53 -29 62 -59 -136 -56 -368 -6 -595 173 -780 28 -29 49 -54 46 -56 -2 -1 -26 -8 -53 -15 -65 -17 -104 -46 -127 -96 -25 -55 -24 -78 11 -284 42 -242 91 -466 146 -662 63 -228 67 -240 112 -370 59 -169 71 -203 82 -225 5 -11 27 -63 49 -116 71 -170 120 -265 182 -350 38 -53 65 -103 75 -138 36 -131 51 -163 137 -306 291 -480 538 -796 927 -1186 420 -421 643 -585 1355 -998 115 -67 172 -107 204 -142 49 -55 61 -60 61 -25 0 14 5 28 10 31 10 6 256 -117 339 -169 41 -26 177 -87 236 -107 22 -7 76 -13 121 -13 114 1 204 45 297 144 37 38 69 70 71 70 3 0 14 -21 26 -47 60 -135 201 -298 308 -356 148 -80 322 -65 486 43 60 39 180 154 222 213 l20 28 68 -155 c60 -137 74 -161 117 -200 76 -69 111 -76 349 -76 356 -1 427 37 517 279 50 136 39 294 -31 426 -86 164 -301 285 -481 272 -142 -10 -255 -69 -386 -198 l-86 -86 -18 75 c-30 130 -85 222 -192 327 l-95 93 125 60 c157 76 228 139 280 244 118 238 80 476 -99 637 -101 89 -270 149 -389 138 -131 -12 -277 -96 -391 -223 l-68 -76 -18 77 c-34 145 -119 272 -242 361 -57 42 -58 44 -35 53 230 87 347 170 418 293 161 283 -7 667 -330 753 -181 48 -353 -14 -534 -194 l-82 -82 -22 87 c-39 157 -111 261 -241 350 l-70 48 82 23 c275 80 418 257 418 516 0 186 -102 365 -260 454 -77 44 -219 83 -301 83 -146 0 -285 -80 -405 -233 -29 -37 -55 -64 -57 -60 -2 5 -8 31 -12 58 -20 146 -117 298 -237 374 l-57 36 134 68 c88 44 150 83 183 115 106 100 181 323 162 481 -29 237 -300 448 -550 428 -137 -11 -246 -72 -381 -215 l-86 -90 -13 67 c-28 148 -121 291 -245 376 -30 21 -54 39 -53 41 2 1 37 15 79 31 111 43 201 96 269 160 72 67 107 122 132 212 90 325 -160 661 -495 664 -147 1 -256 -52 -409 -201 -103 -100 -98 -99 -113 -22 -11 56 -55 161 -88 210 -42 61 -114 129 -175 165 -29 17 -52 32 -52 35 0 3 40 18 89 33 211 68 350 199 396 372 22 85 20 228 -5 306 -75 244 -359 410 -606 355z m539 -2040 l136 -204 -102 -51 c-56 -28 -147 -75 -202 -106 -54 -30 -102 -55 -105 -55 -6 0 -116 161 -213 311 l-17 25 151 120 c84 65 163 129 178 141 14 13 29 23 32 23 3 0 67 -92 142 -204z m-255 -1083 l101 -152 -112 -62 c-62 -34 -131 -76 -155 -92 -24 -16 -45 -27 -46 -25 -2 1 -44 65 -95 140 l-91 137 33 26 c144 114 253 192 258 187 4 -4 52 -75 107 -159z m1087 -169 c75 -113 135 -207 132 -210 -3 -3 -92 -54 -198 -113 -146 -82 -197 -106 -206 -97 -6 6 -59 82 -116 169 l-106 158 45 41 c38 35 306 257 311 258 0 0 63 -93 138 -206z m-1342 -909 l77 -115 -103 -52 c-56 -29 -108 -53 -115 -53 -6 0 -39 40 -72 90 -57 85 -59 90 -42 109 29 32 156 136 168 136 6 0 45 -52 87 -115z m1096 -188 l108 -163 -66 -31 c-36 -18 -102 -52 -146 -77 -44 -25 -85 -46 -90 -46 -6 0 -50 61 -99 136 -76 115 -87 137 -75 149 15 14 252 195 256 195 2 0 52 -73 112 -163z m1086 -163 c72 -108 131 -201 132 -208 3 -10 -375 -226 -394 -226 -9 1 -223 322 -223 335 0 4 12 17 27 29 15 11 93 76 172 144 79 67 147 122 150 122 3 0 65 -89 136 -196z m-1340 -912 c37 -56 66 -104 64 -106 -14 -11 -178 -96 -186 -96 -13 0 -125 168 -121 181 6 17 162 139 169 131 3 -4 37 -53 74 -110z m1195 -342 c0 -3 -30 -21 -68 -40 -65 -33 -134 -72 -199 -111 l-32 -20 -91 136 c-50 75 -88 140 -85 145 3 5 62 56 132 114 l126 106 109 -162 c59 -90 108 -165 108 -168z m1127 -225 c-6 -4 -365 -204 -383 -213 -20 -11 -29 0 -134 159 -67 100 -110 173 -104 178 5 5 85 72 178 150 l169 142 138 -208 c76 -114 137 -208 136 -208z m-1482 -697 c56 -85 72 -115 63 -125 -6 -7 -14 -13 -18 -13 -4 0 -44 -20 -89 -45 -45 -25 -86 -45 -91 -45 -12 0 -132 178 -128 190 4 10 171 149 180 150 4 0 41 -50 83 -112z m1099 -189 c59 -89 106 -162 104 -164 -2 -2 -61 -36 -133 -77 -71 -41 -140 -80 -152 -88 -12 -8 -24 -12 -26 -10 -11 12 -187 280 -187 284 0 4 70 62 199 163 36 28 71 52 77 52 6 1 59 -71 118 -160z m1091 -171 c154 -232 151 -201 26 -269 -36 -19 -117 -64 -180 -98 -62 -35 -117 -59 -121 -54 -4 4 -55 80 -113 168 -102 153 -106 160 -89 179 25 28 325 276 334 276 5 0 69 -91 143 -202z"/>
<path d="M11291 5158 c-53 -15 -136 -105 -155 -168 -9 -30 -16 -63 -16 -75 0 -46 31 -123 66 -163 55 -65 104 -86 195 -87 67 0 81 3 124 30 163 101 175 315 23 428 -62 45 -154 59 -237 35z"/>
<path d="M10053 4400 c-94 -19 -182 -86 -235 -179 -31 -52 -33 -62 -33 -151 0 -79 4 -103 23 -142 75 -153 241 -236 387 -193 184 53 297 231 255 404 -25 104 -119 210 -217 245 -54 19 -131 26 -180 16z"/>
<path d="M11057 4143 c-62 -21 -125 -77 -162 -144 -27 -49 -30 -63 -30 -144 0 -67 5 -99 18 -126 31 -62 85 -116 145 -146 77 -38 192 -40 265 -4 99 49 157 134 165 241 6 84 -9 136 -61 211 -57 84 -122 121 -221 126 -48 2 -86 -2 -119 -14z"/>
<path d="M8736 3624 c-108 -34 -214 -133 -262 -244 -15 -35 -19 -68 -19 -155 0 -100 3 -115 28 -167 60 -122 168 -205 299 -229 119 -22 246 22 345 118 158 153 158 403 2 568 -76 80 -157 118 -262 122 -55 2 -99 -2 -131 -13z"/>
<path d="M9789 3371 c-68 -26 -134 -76 -179 -133 -109 -137 -88 -358 46 -490 57 -57 111 -85 192 -100 149 -28 332 73 400 220 23 48 27 71 27 148 0 86 -2 95 -39 168 -47 92 -112 154 -193 185 -70 27 -188 28 -254 2z"/>
<path d="M10853 3136 c-52 -17 -129 -65 -165 -103 -91 -96 -105 -241 -37 -380 33 -68 77 -110 154 -148 89 -43 81 -49 202 135 179 271 196 302 188 350 -15 86 -109 151 -230 156 -42 3 -87 -2 -112 -10z"/>
<path d="M7461 2824 c-129 -34 -235 -124 -298 -250 -37 -77 -38 -80 -38 -193 0 -110 2 -120 32 -184 61 -127 145 -204 274 -247 54 -18 81 -21 169 -18 92 3 113 7 170 34 163 78 260 232 260 414 0 135 -48 247 -143 337 -29 28 -72 60 -95 72 -97 50 -226 63 -331 35z"/>
<path d="M8526 2590 c-186 -47 -316 -217 -316 -414 0 -211 158 -398 357 -424 197 -25 361 54 446 216 52 99 65 184 43 283 -31 141 -117 250 -244 310 -56 27 -80 32 -157 35 -49 2 -107 -1 -129 -6z"/>
<path d="M9610 2350 c-116 -25 -232 -116 -285 -224 -37 -76 -45 -185 -20 -271 33 -114 117 -214 224 -264 50 -23 68 -26 166 -26 101 0 115 2 170 29 73 36 163 124 194 190 52 112 50 244 -6 353 -37 74 -133 163 -207 191 -67 25 -171 35 -236 22z"/>
<path d="M6148 2017 c-231 -79 -374 -311 -340 -552 28 -193 157 -347 345 -410 256 -86 543 51 637 302 51 136 44 268 -19 398 -66 135 -176 227 -320 269 -83 24 -220 21 -303 -7z"/>
<path d="M7218 1771 c-82 -27 -136 -61 -196 -125 -139 -146 -169 -370 -76 -556 76 -150 247 -250 429 -250 235 0 423 152 471 382 47 224 -79 456 -293 538 -83 32 -255 38 -335 11z"/>
<path d="M8310 1562 c-202 -53 -339 -236 -340 -452 0 -129 41 -234 124 -315 157 -152 375 -177 569 -66 205 117 276 381 161 602 -61 115 -176 204 -304 233 -86 20 -128 19 -210 -2z"/>
<path d="M9393 1325 c-130 -29 -244 -119 -303 -239 -27 -55 -33 -78 -34 -140 0 -41 2 -77 6 -81 8 -9 618 397 614 410 -4 17 -110 54 -167 60 -30 2 -82 -2 -116 -10z"/>
<path d="M7014 761 c-165 -47 -299 -182 -348 -350 -23 -78 -21 -224 3 -278 11 -23 28 -46 39 -52 26 -14 97 -14 142 -1 19 6 141 29 270 51 388 67 515 102 540 148 27 51 -5 159 -77 264 -132 195 -354 280 -569 218z"/>
<path d="M8080 524 c-98 -26 -160 -74 -226 -174 -14 -22 -24 -43 -22 -49 1 -5 113 31 248 80 318 117 299 108 277 120 -25 14 -146 39 -187 38 -19 0 -60 -7 -90 -15z"/>
</g>
<g id="layer102" fill="#ff8c2d" stroke="none">
<path d="M4930 11965 c-96 -45 -165 -126 -196 -230 -43 -148 40 -316 191 -391 51 -25 72 -29 140 -29 96 0 164 28 234 97 135 132 140 332 12 470 -22 25 -64 57 -93 73 -45 25 -66 30 -143 32 -79 3 -97 0 -145 -22z"/>
<path d="M4290 11855 c-543 -188 -560 -194 -560 -206 0 -22 87 -101 137 -126 93 -45 221 -31 341 37 92 53 157 171 150 273 l-3 44 -65 -22z"/>
<path d="M6040 11746 c-181 -47 -276 -261 -194 -435 23 -48 91 -113 149 -142 69 -33 180 -34 246 -1 103 50 169 151 177 267 5 85 -8 137 -49 193 -74 100 -210 149 -329 118z"/>
<path d="M7065 11472 c-129 -61 -190 -235 -126 -359 60 -117 219 -171 343 -115 116 51 176 192 137 323 -16 51 -60 103 -116 136 -62 36 -178 43 -238 15z"/>
<path d="M3002 11275 c-57 -32 -631 -416 -637 -425 -9 -15 74 -129 120 -163 81 -63 144 -81 270 -82 99 0 116 3 168 27 112 53 189 135 228 245 29 79 32 219 6 283 -28 68 -77 140 -96 140 -9 0 -35 -11 -59 -25z"/>
<path d="M8134 11211 c-131 -60 -168 -257 -65 -344 18 -15 58 -34 89 -43 142 -42 282 56 282 197 0 60 -10 87 -52 134 -62 72 -168 95 -254 56z"/>
<path d="M3688 11196 c-194 -52 -324 -252 -290 -445 23 -130 110 -244 232 -304 60 -30 71 -32 170 -32 99 0 109 2 170 33 110 56 183 141 216 253 23 77 15 199 -19 271 -84 180 -288 275 -479 224z"/>
<path d="M4787 10969 c-113 -18 -231 -108 -281 -213 -35 -75 -43 -154 -22 -236 30 -117 91 -198 188 -251 60 -32 68 -34 163 -34 88 0 107 3 157 27 112 52 195 158 217 275 25 128 -41 289 -149 367 -79 58 -177 81 -273 65z"/>
<path d="M9178 10965 c-24 -13 -27 -22 -33 -99 -8 -100 3 -144 46 -181 61 -50 179 -20 228 59 46 73 14 142 -90 193 -81 41 -116 47 -151 28z"/>
<path d="M5816 10715 c-176 -49 -285 -242 -237 -421 25 -93 115 -189 210 -225 75 -28 185 -24 253 9 151 74 237 247 195 393 -34 116 -118 202 -236 239 -72 23 -115 24 -185 5z"/>
<path d="M6860 10472 c-73 -27 -116 -59 -149 -109 -41 -62 -54 -113 -49 -198 6 -118 69 -209 177 -258 59 -27 187 -29 245 -3 57 26 131 100 157 159 27 60 32 168 10 230 -21 63 -84 132 -146 163 -73 35 -178 42 -245 16z"/>
<path d="M1599 10153 c-152 -164 -290 -315 -308 -335 l-32 -36 23 -17 c13 -8 54 -25 92 -37 55 -17 85 -20 158 -16 76 5 100 11 161 41 184 91 280 278 250 485 -13 85 -50 212 -61 212 -4 0 -132 -134 -283 -297z"/>
<path d="M2430 10419 c-118 -23 -253 -126 -308 -235 -95 -190 -58 -392 100 -539 137 -127 335 -159 511 -81 188 83 296 321 242 529 -21 80 -46 125 -104 189 -105 115 -278 169 -441 137z"/>
<path d="M7939 10218 c-56 -15 -130 -77 -158 -133 -68 -136 -15 -286 124 -351 64 -30 161 -32 220 -5 88 41 149 143 149 246 -1 166 -169 288 -335 243z"/>
<path d="M3439 10157 c-79 -33 -117 -59 -171 -114 -120 -123 -148 -298 -77 -469 24 -58 43 -85 93 -132 88 -81 157 -107 291 -107 117 0 190 22 270 83 102 78 153 174 162 308 12 183 -79 339 -245 417 -59 28 -79 32 -167 35 -87 2 -107 0 -156 -21z"/>
<path d="M9001 9955 c-133 -42 -193 -216 -115 -328 77 -109 213 -124 309 -36 56 52 80 111 72 181 -17 136 -142 223 -266 183z"/>
<path d="M4555 9937 c-213 -55 -347 -243 -315 -442 31 -190 177 -332 360 -352 162 -17 346 91 418 244 23 50 27 71 27 153 0 88 -3 101 -34 165 -47 96 -136 184 -216 214 -73 28 -173 35 -240 18z"/>
<path d="M9991 9645 c-27 -181 -12 -203 141 -219 l66 -7 16 54 c9 30 16 71 16 90 0 78 -26 103 -137 132 -31 8 -65 17 -74 20 -14 5 -18 -7 -28 -70z"/>
<path d="M5610 9697 c-301 -69 -396 -416 -174 -633 69 -68 141 -96 244 -96 249 1 425 219 366 452 -51 200 -242 321 -436 277z"/>
<path d="M1235 9606 c-77 -24 -120 -63 -211 -191 -49 -69 -120 -175 -158 -237 l-68 -113 6 -104 c4 -66 11 -113 21 -127 22 -34 142 -128 201 -157 158 -80 359 -75 496 12 237 151 314 423 189 669 -96 188 -311 300 -476 248z"/>
<path d="M6672 9454 c-70 -18 -99 -34 -159 -89 -176 -157 -127 -438 95 -547 58 -29 76 -33 142 -32 129 1 237 67 300 185 41 78 51 171 26 244 -61 180 -235 283 -404 239z"/>
<path d="M2245 9389 c-222 -24 -395 -210 -412 -442 -11 -153 36 -277 143 -376 129 -121 305 -167 465 -123 127 35 230 120 292 241 139 267 27 565 -253 675 -57 22 -157 33 -235 25z"/>
<path d="M7710 9207 c-145 -41 -229 -163 -218 -316 12 -162 138 -273 313 -274 159 -2 276 111 292 280 11 120 -58 238 -170 291 -60 28 -156 36 -217 19z"/>
<path d="M3228 9141 c-151 -49 -261 -168 -303 -328 -75 -287 143 -567 440 -567 209 0 390 140 445 344 7 25 12 81 12 125 -1 203 -129 370 -331 431 -63 20 -194 17 -263 -5z"/>
<path d="M8800 8961 c-119 -25 -200 -126 -200 -251 0 -148 107 -252 256 -252 231 0 341 290 168 442 -62 54 -147 77 -224 61z"/>
<path d="M4350 8919 c-87 -14 -191 -71 -244 -133 -212 -247 -95 -626 219 -711 210 -57 449 80 511 293 89 303 -175 602 -486 551z"/>
<path d="M9840 8693 c-39 -14 -94 -61 -118 -102 -38 -65 -38 -162 1 -220 74 -112 217 -133 314 -48 116 102 85 304 -54 363 -32 14 -113 18 -143 7z"/>
<path d="M5421 8678 c-121 -19 -256 -119 -310 -231 -91 -189 -3 -427 195 -528 65 -32 73 -34 173 -34 100 0 110 2 173 34 119 59 183 132 223 250 24 75 17 187 -17 261 -84 184 -249 277 -437 248z"/>
<path d="M954 8566 c-110 -25 -179 -68 -290 -181 l-102 -104 -10 42 c-6 23 -13 54 -17 70 -3 18 -12 27 -24 27 -20 0 -25 -9 -98 -210 -39 -108 -99 -265 -113 -295 -37 -82 -40 -94 -19 -105 16 -9 27 -2 77 51 31 34 74 80 96 101 l38 40 139 -209 c77 -114 139 -211 139 -215 0 -4 -19 -17 -42 -29 -24 -12 -113 -61 -199 -110 -86 -49 -159 -89 -163 -89 -14 0 -86 173 -80 195 4 15 0 24 -12 29 -24 9 -29 0 -15 -30 9 -22 7 -44 -18 -137 -17 -62 -44 -166 -61 -232 -27 -105 -68 -261 -113 -432 -8 -31 -10 -53 -4 -53 5 0 41 30 81 68 39 37 88 82 108 101 l36 33 111 -166 c105 -157 121 -186 103 -186 -4 0 -59 -31 -122 -68 -63 -37 -136 -80 -162 -95 l-47 -27 -27 47 c-15 27 -39 68 -55 92 -33 53 -29 62 -59 -136 -56 -368 -6 -595 173 -780 28 -29 49 -54 46 -56 -2 -1 -26 -8 -53 -15 -65 -17 -104 -46 -127 -96 -25 -55 -24 -78 11 -284 42 -242 91 -466 146 -662 63 -228 67 -240 112 -370 59 -169 71 -203 82 -225 5 -11 27 -63 49 -116 71 -170 120 -265 182 -350 38 -53 65 -103 75 -138 36 -131 51 -163 137 -306 291 -480 538 -796 927 -1186 420 -421 643 -585 1355 -998 115 -67 172 -107 204 -142 49 -55 61 -60 61 -25 0 14 5 28 10 31 10 6 256 -117 339 -169 41 -26 177 -87 236 -107 22 -7 76 -13 121 -13 114 1 204 45 297 144 37 38 69 70 72 70 2 0 11 -16 20 -36 10 -24 18 -33 27 -27 7 4 203 135 436 291 232 155 429 282 437 282 27 0 16 20 -42 74 l-56 53 125 61 c158 76 229 139 281 244 118 238 80 476 -99 637 -101 89 -270 149 -389 138 -131 -12 -277 -96 -391 -223 l-68 -76 -18 77 c-34 145 -119 272 -242 361 -57 42 -58 44 -35 53 230 87 347 170 418 293 161 283 -7 667 -330 753 -181 48 -353 -14 -534 -194 l-82 -82 -22 87 c-39 157 -111 261 -241 350 l-70 48 82 23 c275 80 418 257 418 516 0 186 -102 365 -260 454 -77 44 -219 83 -301 83 -146 0 -285 -80 -405 -233 -29 -37 -55 -64 -57 -60 -2 5 -8 31 -12 58 -20 146 -117 298 -237 374 l-57 36 134 68 c88 44 150 83 183 115 106 100 181 323 162 481 -29 237 -300 448 -550 428 -137 -11 -246 -72 -381 -215 l-86 -90 -13 67 c-28 148 -121 291 -245 376 -30 21 -54 39 -53 41 2 1 37 15 79 31 111 43 201 96 269 160 72 67 107 122 132 212 90 325 -160 661 -495 664 -147 1 -256 -52 -409 -201 -103 -100 -98 -99 -113 -22 -11 56 -55 161 -88 210 -42 61 -114 129 -175 165 -29 17 -52 32 -52 35 0 3 40 18 89 33 211 68 350 199 396 372 22 85 20 228 -5 306 -75 244 -359 410 -606 355z m539 -2040 l136 -204 -102 -51 c-56 -28 -147 -75 -202 -106 -54 -30 -102 -55 -105 -55 -6 0 -116 161 -213 311 l-17 25 151 120 c84 65 163 129 178 141 14 13 29 23 32 23 3 0 67 -92 142 -204z m-255 -1083 l101 -152 -112 -62 c-62 -34 -131 -76 -155 -92 -24 -16 -45 -27 -46 -25 -2 1 -44 65 -95 140 l-91 137 33 26 c144 114 253 192 258 187 4 -4 52 -75 107 -159z m1087 -169 c75 -113 135 -207 132 -210 -3 -3 -92 -54 -198 -113 -146 -82 -197 -106 -206 -97 -6 6 -59 82 -116 169 l-106 158 45 41 c38 35 306 257 311 258 0 0 63 -93 138 -206z m-1342 -909 l77 -115 -103 -52 c-56 -29 -108 -53 -115 -53 -6 0 -39 40 -72 90 -57 85 -59 90 -42 109 29 32 156 136 168 136 6 0 45 -52 87 -115z m1096 -188 l108 -163 -66 -31 c-36 -18 -102 -52 -146 -77 -44 -25 -85 -46 -90 -46 -6 0 -50 61 -99 136 -76 115 -87 137 -75 149 15 14 252 195 256 195 2 0 52 -73 112 -163z m1086 -163 c72 -108 131 -201 132 -208 3 -10 -375 -226 -394 -226 -9 1 -223 322 -223 335 0 4 12 17 27 29 15 11 93 76 172 144 79 67 147 122 150 122 3 0 65 -89 136 -196z m-1340 -912 c37 -56 66 -104 64 -106 -14 -11 -178 -96 -186 -96 -13 0 -125 168 -121 181 6 17 162 139 169 131 3 -4 37 -53 74 -110z m1195 -342 c0 -3 -30 -21 -68 -40 -65 -33 -134 -72 -199 -111 l-32 -20 -91 136 c-50 75 -88 140 -85 145 3 5 62 56 132 114 l126 106 109 -162 c59 -90 108 -165 108 -168z m1127 -225 c-6 -4 -365 -204 -383 -213 -20 -11 -29 0 -134 159 -67 100 -110 173 -104 178 5 5 85 72 178 150 l169 142 138 -208 c76 -114 137 -208 136 -208z m-1482 -697 c56 -85 72 -115 63 -125 -6 -7 -14 -13 -18 -13 -4 0 -44 -20 -89 -45 -45 -25 -86 -45 -91 -45 -12 0 -132 178 -128 190 4 10 171 149 180 150 4 0 41 -50 83 -112z m1099 -189 c59 -89 106 -162 104 -164 -2 -2 -61 -36 -133 -77 -71 -41 -140 -80 -152 -88 -12 -8 -24 -12 -26 -10 -11 12 -187 280 -187 284 0 4 70 62 199 163 36 28 71 52 77 52 6 1 59 -71 118 -160z m1091 -171 c154 -232 151 -201 26 -269 -36 -19 -117 -64 -180 -98 -62 -35 -117 -59 -121 -54 -4 4 -55 80 -113 168 -102 153 -106 160 -89 179 25 28 325 276 334 276 5 0 69 -91 143 -202z"/>
<path d="M6495 8439 c-69 -9 -137 -43 -199 -100 -161 -147 -164 -380 -7 -537 28 -28 76 -63 108 -78 50 -25 70 -28 148 -28 79 0 97 3 148 29 72 36 150 117 185 192 22 50 26 72 26 153 1 84 -3 102 -28 158 -67 146 -223 233 -381 211z"/>
<path d="M10865 8376 c-21 -21 -83 -191 -73 -201 9 -9 197 -27 220 -22 37 10 59 63 61 149 l2 71 -55 13 c-86 20 -127 18 -155 -10z"/>
<path d="M1969 8352 c-325 -85 -482 -480 -301 -758 103 -157 247 -234 436 -234 149 0 260 46 356 146 113 117 164 272 142 429 -43 299 -339 493 -633 417z"/>
<path d="M7517 8190 c-101 -26 -198 -105 -239 -195 -34 -76 -32 -200 5 -277 60 -123 165 -192 297 -192 90 -1 140 13 204 56 214 141 183 478 -52 586 -60 27 -154 37 -215 22z"/>
<path d="M3060 8130 c-156 -27 -257 -105 -334 -257 -138 -275 0 -597 292 -683 135 -40 296 -17 403 58 90 62 154 147 189 251 27 82 27 215 0 304 -71 229 -307 369 -550 327z"/>
<path d="M8559 7935 c-108 -35 -186 -113 -209 -212 -43 -178 89 -356 275 -370 108 -9 191 29 257 119 145 195 24 459 -217 474 -36 2 -78 -2 -106 -11z"/>
<path d="M4105 7886 c-334 -81 -466 -480 -246 -744 131 -157 361 -201 559 -106 237 114 319 400 182 638 -97 170 -304 259 -495 212z"/>
<path d="M9612 7687 c-45 -14 -118 -81 -144 -131 -13 -26 -23 -67 -26 -111 -3 -63 -1 -76 25 -125 77 -146 265 -187 398 -86 72 55 111 187 84 283 -17 64 -95 143 -163 166 -55 19 -124 20 -174 4z"/>
<path d="M5175 7655 c-158 -39 -280 -158 -320 -311 -66 -255 112 -513 373 -540 171 -18 362 86 436 238 159 325 -140 700 -489 613z"/>
<path d="M10686 7425 c-158 -57 -202 -249 -84 -361 131 -124 347 -32 349 148 2 153 -134 262 -265 213z"/>
<path d="M6250 7419 c-122 -20 -246 -113 -300 -224 -113 -234 39 -517 305 -566 159 -29 359 71 434 219 65 128 39 315 -61 436 -84 102 -240 158 -378 135z"/>
<path d="M7300 7176 c-111 -30 -207 -107 -255 -203 -26 -52 -29 -68 -29 -153 0 -85 3 -102 31 -162 37 -80 107 -154 178 -188 42 -21 64 -25 145 -25 85 0 102 3 160 31 131 62 209 173 218 309 16 253 -216 455 -448 391z"/>
<path d="M11760 7173 c-34 -12 -92 -59 -106 -84 -8 -16 -14 -46 -14 -68 0 -59 48 -102 152 -137 76 -25 83 -26 113 -11 29 14 33 21 38 69 16 132 0 191 -62 223 -29 15 -91 19 -121 8z"/>
<path d="M2788 7081 c-253 -83 -406 -355 -342 -605 58 -224 256 -378 489 -379 110 -1 179 18 260 71 182 119 271 312 235 509 -32 172 -133 309 -280 381 -71 34 -81 36 -190 39 -92 2 -126 -1 -172 -16z"/>
<path d="M8340 6921 c-113 -37 -208 -138 -240 -254 -38 -140 47 -309 190 -376 42 -19 75 -27 138 -29 77 -4 88 -2 147 27 116 57 185 161 193 291 6 102 -22 175 -92 245 -72 72 -131 98 -231 102 -44 1 -91 -1 -105 -6z"/>
<path d="M3945 6874 c-130 -28 -208 -68 -281 -146 -92 -101 -134 -207 -134 -344 0 -105 24 -182 83 -271 158 -238 473 -281 698 -96 95 78 153 186 172 318 12 85 -7 195 -50 283 -35 73 -132 170 -203 205 -86 42 -216 65 -285 51z"/>
<path d="M9393 6675 c-131 -36 -214 -148 -215 -290 -1 -111 36 -183 127 -245 210 -145 497 10 483 260 -11 192 -207 328 -395 275z"/>
<path d="M4938 6614 c-205 -49 -338 -220 -338 -434 0 -141 39 -240 129 -330 105 -105 254 -155 390 -131 153 27 272 119 340 260 35 74 36 79 36 191 0 111 -1 118 -33 183 -66 134 -183 229 -323 262 -77 18 -126 18 -201 -1z"/>
<path d="M10446 6415 c-59 -21 -108 -65 -139 -126 -25 -48 -28 -62 -24 -124 5 -83 29 -136 85 -187 101 -91 268 -83 365 17 92 94 87 275 -10 367 -66 63 -186 86 -277 53z"/>
<path d="M6043 6389 c-177 -21 -324 -165 -355 -349 -38 -222 112 -444 333 -491 114 -25 263 7 352 75 131 100 196 289 152 441 -67 232 -245 351 -482 324z"/>
<path d="M11540 6181 c-74 -24 -119 -63 -145 -123 -52 -126 36 -286 167 -304 71 -10 134 12 184 62 102 102 82 268 -42 344 -34 22 -126 34 -164 21z"/>
<path d="M7067 6140 c-163 -41 -290 -190 -304 -356 -13 -163 80 -320 237 -397 60 -29 73 -32 165 -32 92 0 106 3 167 32 90 42 160 110 201 192 30 62 32 72 32 171 -1 93 -4 112 -27 163 -36 76 -125 165 -203 202 -48 22 -77 28 -145 31 -47 2 -102 -1 -123 -6z"/>
<path d="M8099 5897 c-128 -54 -206 -140 -236 -261 -14 -59 -15 -79 -5 -139 23 -133 104 -241 220 -295 48 -22 70 -26 139 -26 69 1 91 6 147 32 80 37 153 104 192 174 27 49 29 61 29 158 0 93 -3 111 -27 163 -36 76 -116 159 -181 188 -79 34 -204 37 -278 6z"/>
<path d="M3688 5824 c-128 -31 -267 -134 -333 -248 -114 -195 -75 -450 91 -606 280 -262 729 -139 838 229 23 78 21 213 -4 294 -77 247 -337 393 -592 331z"/>
<path d="M9189 5657 c-103 -29 -182 -97 -226 -195 -22 -46 -24 -64 -21 -140 5 -140 65 -235 186 -294 59 -29 76 -33 147 -32 64 0 91 5 137 26 107 49 174 132 199 246 29 138 -64 315 -198 374 -56 25 -164 32 -224 15z"/>
<path d="M4720 5574 c-179 -48 -302 -175 -345 -356 -19 -80 -19 -136 0 -217 73 -307 415 -461 700 -315 174 90 281 314 245 514 -48 266 -335 445 -600 374z"/>
<path d="M10222 5412 c-131 -47 -221 -210 -192 -349 6 -29 27 -76 46 -105 168 -254 554 -134 554 172 0 168 -113 285 -284 296 -53 4 -84 0 -124 -14z"/>
<path d="M5754 5351 c-228 -78 -360 -329 -299 -566 22 -85 61 -149 125 -208 163 -151 387 -169 572 -44 314 210 245 692 -117 817 -75 26 -208 26 -281 1z"/>
<path d="M11291 5158 c-53 -15 -136 -105 -155 -168 -16 -53 -21 -100 -11 -100 3 0 80 50 172 111 92 62 175 114 185 117 30 8 20 28 -21 40 -45 14 -122 14 -170 0z"/>
<path d="M6866 5114 c-281 -68 -425 -367 -300 -619 112 -225 435 -296 641 -141 123 93 181 221 170 378 -12 186 -154 349 -335 387 -67 14 -102 13 -176 -5z"/>
<path d="M11601 5033 c-1 -7 -8 -13 -16 -13 -9 0 -12 -6 -9 -15 4 -8 15 -15 25 -15 10 0 19 -4 19 -10 0 -5 -5 -10 -11 -10 -6 0 -97 -57 -202 -126 -171 -114 -189 -128 -172 -140 22 -17 19 -18 217 112 86 57 161 104 167 104 18 0 13 18 -6 23 -17 4 -17 5 0 6 9 0 17 9 17 19 -1 21 -28 82 -29 65z"/>
<path d="M7898 4871 c-203 -67 -319 -241 -289 -433 37 -229 244 -389 452 -350 251 46 405 265 345 488 -32 119 -124 231 -232 281 -76 35 -195 41 -276 14z"/>
<path d="M8970 4637 c-193 -55 -303 -220 -279 -415 16 -122 122 -259 234 -301 86 -33 216 -27 295 13 132 66 210 191 210 336 0 142 -95 287 -227 347 -64 29 -169 38 -233 20z"/>
<path d="M4545 4569 c-136 -20 -290 -128 -354 -248 -148 -278 -18 -619 278 -732 35 -14 89 -23 146 -26 79 -5 100 -2 169 21 136 46 243 138 301 261 92 193 70 375 -64 542 -111 137 -297 209 -476 182z"/>
<path d="M10053 4400 c-94 -19 -182 -86 -235 -178 -27 -48 -32 -69 -36 -139 -3 -46 -2 -83 2 -83 3 0 119 75 256 167 169 112 250 172 248 182 -7 34 -156 67 -235 51z"/>
<path d="M5610 4329 c-240 -35 -411 -229 -410 -468 1 -138 37 -235 126 -330 141 -152 395 -197 581 -103 106 55 201 176 238 306 23 80 17 219 -14 298 -79 205 -299 330 -521 297z"/>
<path d="M10351 4303 c-1 -7 -8 -13 -16 -13 -20 0 -19 -16 1 -24 8 -3 13 -2 9 3 -3 5 0 11 6 13 7 2 9 11 6 19 -3 9 -6 10 -6 2z"/>
<path d="M10431 4183 c0 -7 -8 -13 -17 -13 -9 0 -133 -78 -275 -172 -198 -133 -255 -175 -247 -185 6 -7 16 -13 24 -13 7 0 118 71 246 158 305 205 280 186 275 214 -2 12 -5 17 -6 11z"/>
<path d="M6620 4084 c-158 -42 -267 -145 -319 -302 -36 -105 -23 -249 30 -353 49 -98 171 -194 283 -224 84 -23 208 -17 288 14 212 82 339 317 284 528 -22 88 -47 133 -116 206 -116 124 -288 174 -450 131z"/>
<path d="M7724 3855 c-135 -29 -254 -122 -315 -243 -32 -64 -33 -72 -34 -177 0 -103 2 -114 32 -178 43 -90 122 -168 210 -209 91 -42 227 -51 315 -20 192 68 308 239 295 436 -2 45 -14 104 -25 133 -72 188 -283 302 -478 258z"/>
<path d="M8736 3623 c-64 -19 -155 -81 -196 -133 -64 -81 -83 -135 -87 -245 -2 -55 0 -106 5 -113 7 -11 79 32 311 187 165 111 308 201 316 201 30 0 14 31 -32 61 -93 58 -213 74 -317 42z"/>
<path d="M9133 3485 c-13 -14 -7 -25 14 -25 14 0 18 26 6 33 -5 3 -13 -1 -20 -8z"/>
<path d="M9179 3422 c-11 -2 -15 -10 -11 -27 4 -21 6 -22 19 -10 18 19 13 42 -8 37z"/>
<path d="M8885 3164 c-159 -107 -298 -200 -307 -207 -16 -10 -16 -13 -2 -29 15 -16 37 -3 320 185 167 111 304 208 304 215 0 6 5 12 10 12 6 0 10 5 10 10 0 31 -74 -10 -335 -186z"/>
<path d="M5380 3300 c-57 -10 -146 -44 -185 -70 -91 -60 -177 -177 -210 -287 -31 -102 -14 -269 36 -361 148 -269 481 -356 729 -191 144 97 221 240 221 414 1 275 -197 485 -470 500 -42 2 -96 0 -121 -5z"/>
<path d="M6368 3047 c-171 -60 -278 -185 -314 -371 -15 -74 -15 -95 -4 -162 57 -334 408 -512 710 -359 143 72 250 259 250 436 0 193 -128 380 -308 450 -88 34 -245 37 -334 6z"/>
<path d="M7461 2825 c-130 -37 -235 -125 -298 -251 -38 -77 -38 -79 -38 -195 0 -74 4 -122 11 -129 9 -9 105 50 372 227 198 131 361 244 361 250 1 17 -64 59 -130 85 -71 27 -205 33 -278 13z"/>
<path d="M7932 2644 c-11 -12 -10 -14 5 -14 15 0 16 -2 3 -10 -12 -8 -12 -10 5 -11 11 0 14 -3 7 -6 -15 -6 -6 -23 14 -23 19 0 18 13 -4 48 -14 25 -19 27 -30 16z"/>
<path d="M7991 2563 c-1 -7 -7 -13 -15 -13 -11 0 -652 -422 -713 -469 -20 -16 -20 -19 -6 -34 14 -14 48 6 374 224 197 131 363 239 369 239 5 0 10 6 9 13 -1 18 -17 54 -18 40z"/>
<path d="M6148 2017 c-234 -80 -380 -323 -339 -564 7 -40 17 -75 22 -79 15 -9 810 528 807 545 -5 23 -102 78 -177 101 -91 29 -224 27 -313 -3z"/>
<path d="M6702 1834 c-12 -13 -11 -19 2 -39 9 -14 23 -25 31 -25 20 0 19 30 -3 57 -15 19 -19 20 -30 7z"/>
<path d="M6770 1743 c0 -7 -7 -13 -16 -13 -15 0 -82 -36 -94 -50 -3 -3 -23 -17 -45 -30 -22 -13 -42 -27 -45 -30 -3 -3 -23 -17 -45 -30 -22 -13 -42 -27 -45 -30 -3 -3 -23 -17 -45 -30 -22 -13 -44 -28 -50 -32 -35 -29 -423 -282 -437 -286 -23 -6 -23 -15 0 -35 17 -16 41 -1 421 253 222 149 407 270 412 270 12 0 11 21 -1 40 -6 10 -10 11 -10 3z"/>
<path d="M5343 802 c-90 -59 -222 -146 -295 -194 -405 -266 -445 -297 -396 -306 9 -2 215 129 459 290 280 186 436 294 424 297 -14 2 -15 5 -4 12 11 7 9 9 -6 9 -11 -1 -93 -49 -182 -108z"/>
</g>


</svg>